# Alias OBJ Model File
# Exported from SketchUp, (c) 2000-2012 Trimble Navigation Limited
# File units = meters

mtllib spiked_shield.mtl

g Mesh1 spiked_shield1 Model

usemtl Metal_Corrugated_Shiny
v 0.341517 0.637382 -0.598313
vt 4.26894 -9.55396
vn -0.145601 0.596942 0.788961
v 0.242023 0.620127 -0.603618
vt 4.14047 -10.5409
v 0.265982 0.541254 -0.53952
vt 5.16824 -10.5409
v 0.350502 0.607805 -0.574275
vt 4.65435 -9.55396
f 1/1/1 2/2/1 3/3/1 4/4/1 

v 0.343889 0.698131 -0.647682
vt 6.06937 -8.10787
vn -0.149523 0.627095 0.764457
v 0.245185 0.701126 -0.669444
vt 5.9409 -9.09481
vt 6.96867 -9.09481
vt 6.8402 -8.10787
f 5/5/2 6/6/2 2/7/2 1/8/2 

v 0.355164 0.727232 -0.671332
vt 7.81534 -6.25031
vn -0.143256 0.657008 0.740148
v 0.275253 0.778729 -0.732511
vt 7.30145 -7.23725
vt 8.32922 -7.23725
vt 8.20075 -6.25031
f 7/9/3 8/10/3 6/11/3 5/12/3 

v 0.36644 0.819401 -0.617377
vt -2.41808 2.94451
vn -0.693994 -0.29861 0.655136
vt -3.325 1.74976
vt -2.22326 1.90559
f 9/13/4 8/14/4 7/15/4

vt 8.8682 7.8407
vn 0.022671 0.936879 -0.348918
v 0.387037 0.782178 -0.715985
vt 8.67337 6.80179
vt 9.77512 6.64596
f 9/16/5 10/17/5 8/18/5

vt 1.09191 9.59207
vn 0.766546 0.637137 -0.0803943
v 0.43483 0.729288 -0.679446
vt 0.454851 8.49337
vt 1.24154 8.54569
f 9/19/6 11/20/6 10/21/6

vt -9.47867 4.72918
vn 0.100115 -0.51175 0.853281
vt -9.6283 3.6828
vt -8.84161 3.63048
f 9/22/7 7/23/7 11/24/7

usemtl Wood_Veneer_02
v 0.50322 0.702243 -0.66391
vt -2.54088 2.01399
vn 0.0642488 0.614263 0.786482
vt -2.50876 2.2585
vt -2.60511 2.50301
vt -2.73358 2.50301
v 0.491944 0.673142 -0.64026
vt -2.66935 2.01399
f 12/25/8 11/26/8 7/27/8 5/28/8 13/29/8 

v 0.523817 0.728088 -0.684913
vt -2.81686 1.29334
vn 0.0570596 0.601869 0.796554
v 0.407633 0.808023 -0.736989
vt -2.75262 1.78236
vt -2.88109 1.78236
vt -2.97745 1.53785
vt -2.94533 1.29334
f 14/30/9 15/31/9 10/32/9 11/33/9 12/34/9 

v 0.552331 0.748916 -0.701839
vt -2.8965 0.525984
vn 0.0459818 0.591341 0.80511
v 0.464663 0.849678 -0.77084
vt -2.83226 1.015
vt -3.08921 1.015
vt -3.02497 0.525984
f 16/35/10 17/36/10 15/37/10 14/38/10 

v 0.58682 0.763306 -0.713534
vt -2.77437 -0.235794
vn 0.0317704 0.583397 0.811565
v 0.56023 0.820882 -0.753882
vt -2.74225 0.00871491
v 0.499152 0.864068 -0.782535
vt -2.83861 0.253224
vt -2.96708 0.253224
vt -2.90284 -0.235794
f 18/39/11 19/40/11 20/41/11 17/42/11 16/43/11 

v 0.609867 0.892403 -0.805563
vt -2.39456 -0.451059
vn 0.0153939 0.578579 0.815481
v 0.571754 0.885431 -0.799896
vt -2.52303 -0.451059
vt -2.61939 -0.695568
vt -2.58727 -0.940077
v 0.624933 0.770278 -0.7192
vt -2.4588 -0.940077
f 21/44/12 22/45/12 19/46/12 18/47/12 23/48/12 

usemtl Metal_Corrugated_Shiny
vt 7.18368 2.53195
vn -0.0343239 0.736572 0.675487
v 0.599823 0.960155 -0.879952
vt 7.05521 1.54501
v 0.498187 0.941562 -0.864841
vt 8.08298 1.54501
vt 7.5691 2.53195
f 21/49/13 24/50/13 25/51/13 22/52/13 

v 0.688147 0.890563 -0.804067
vt 5.72114 4.31212
vn 0.0045299 0.739616 0.673013
v 0.704196 0.957702 -0.877958
vt 5.59267 3.32519
vt 6.62043 3.32519
vt 6.49196 4.31212
f 26/53/14 27/54/14 24/55/14 21/56/14 

v 0.725646 0.881813 -0.796956
vt 4.22785 5.65736
vn 0.043075 0.734753 0.676966
v 0.804194 0.934367 -0.858995
vt 3.71397 4.67043
vt 4.74174 4.67043
vt 4.61327 5.65736
f 28/57/15 29/58/15 27/59/15 26/60/15 

v 0.763145 0.93613 -0.71224
vt 6.15971 5.88394
vn -0.644914 0.740445 -0.189281
vt 5.25279 4.68919
vt 6.35453 4.84502
f 30/61/16 29/62/16 28/63/16

vt -3.6951 7.75479
vn 0.947116 0.184279 0.262703
v 0.796449 0.857078 -0.776855
vt -3.88992 6.71588
vt -2.78818 6.56004
f 30/64/17 31/65/17 29/66/17

vt -6.21724 6.12241
vn 0.545151 -0.3808 0.746861
v 0.732359 0.816835 -0.750593
vt -6.8543 5.02372
vt -6.06761 5.07604
f 30/67/18 32/68/18 31/69/18

vt 3.01263 4.26429
vn -0.935286 0.136381 0.32656
vt 2.863 3.21791
vt 3.64969 3.16559
f 30/70/19 28/71/19 32/72/19

usemtl Wood_Veneer_02
vt -1.31293 -1.74685
vn -0.0193187 0.579395 0.814818
vt -1.40928 -1.50235
vt -1.53776 -1.50235
v 0.664073 0.769358 -0.718452
vt -1.47352 -1.99136
v 0.701573 0.760608 -0.711341
vt -1.34505 -1.99136
f 32/73/20 28/74/20 26/75/20 33/76/20 34/77/20 

vt -1.97128 -1.53887
vn -0.00203161 0.577213 0.816591
vt -1.90705 -1.04985
vt -2.16399 -1.04985
vt -2.09975 -1.53887
f 33/78/21 26/79/21 21/80/21 23/81/21 

usemtl Metal_Corrugated_Shiny
vt 6.29926 6.52547
vn 0.0102223 0.855507 0.517691
v 0.636233 0.708642 -0.617566
vt 6.15473 7.69174
v 0.646018 0.708412 -0.617379
vt 6.05837 7.69174
vt 5.91384 6.52547
f 23/82/22 35/83/22 36/84/22 33/85/22 

vt 7.7618 4.83072
vn -0.0774561 0.848637 0.523274
v 0.626705 0.706899 -0.616149
vt 7.61727 5.997
vt 7.52092 5.997
vt 7.37639 4.83072
f 18/86/23 37/87/23 35/88/23 23/89/23 

vt 8.70853 2.83741
vn -0.159856 0.824392 0.542978
v 0.618083 0.703301 -0.613226
vt 8.564 4.00368
vt 8.46764 4.00368
vt 8.32312 2.83741
f 16/90/24 38/91/24 37/92/24 18/93/24 

vt 9.07491 0.681369
vn -0.231362 0.784421 0.57546
v 0.610954 0.698094 -0.608994
vt 8.93038 1.84764
vt 8.83403 1.84764
vt 8.6895 0.681369
f 14/94/25 39/95/25 38/96/25 16/97/25 

vt 8.45058 -1.49047
vn -0.287101 0.731451 0.618508
vt 8.83599 -1.49047
v 0.605805 0.691633 -0.603743
vt 8.69146 -0.324197
vt 8.59511 -0.324197
f 14/98/26 12/99/26 40/100/26 39/101/26 

vt 7.62263 -3.53009
vn -0.323275 0.66909 0.669188
vt 8.00804 -3.53009
v 0.602986 0.684358 -0.597831
vt 7.86351 -2.36382
vt 7.76716 -2.36382
f 12/102/27 13/103/27 41/104/27 40/105/27 

vt 6.26208 -5.29851
vn -0.337417 0.601588 0.724045
v 0.490759 0.642768 -0.615575
vt 6.64749 -5.29851
v 0.60269 0.676764 -0.59166
vt 6.50296 -4.13224
vt 6.40661 -4.13224
f 13/106/28 42/107/28 43/108/28 41/109/28 

usemtl Wood_Veneer_02
vt -2.02312 3.12783
vn 0.0670597 0.627678 0.775579
vt -2.28007 3.12783
vt -2.21583 2.63881
vt -2.08736 2.63881
f 5/110/29 1/111/29 42/112/29 13/113/29 

v 0.499743 0.61319 -0.591538
vt -1.61569 3.12523
vn 0.0653005 0.641201 0.764589
vt -1.48722 3.12523
vt -1.42298 3.61424
vt -1.55145 3.61424
v 0.429615 0.595709 -0.570888
vt -1.6478 3.36973
f 44/114/30 42/115/30 1/116/30 4/117/30 45/118/30 

usemtl Metal_Corrugated_Shiny
vt 4.46165 -6.6752
vn -0.328566 0.533545 0.779342
vt 4.84706 -6.6752
v 0.604936 0.66937 -0.585651
vt 4.70253 -5.50893
vt 4.60618 -5.50893
f 42/119/31 44/120/31 46/121/31 43/122/31 

vt 2.34403 -7.56635
vn -0.297323 0.469599 0.831309
v 0.518286 0.586425 -0.569787
vt 2.72944 -7.56635
v 0.609572 0.662678 -0.580213
vt 2.58491 -6.40008
vt 2.48856 -6.40008
f 44/123/32 47/124/32 48/125/32 46/126/32 

usemtl Wood_Veneer_02
vt -0.909813 3.44009
vn 0.0590912 0.65391 0.754261
vt -0.781342 3.44009
vt -0.749225 3.6846
v 0.37803 0.551462 -0.528487
vt -0.845578 3.92911
v 0.396573 0.524697 -0.506736
vt -0.974048 3.92911
f 47/127/33 44/128/33 45/129/33 49/130/33 50/131/33 

usemtl Metal_Corrugated_Shiny
v 0.359487 0.641295 -0.472634
vt -11.3809 6.94547
vn 0.732139 -0.244223 0.635868
vt -11.5305 5.89909
vt -10.7439 5.84677
f 51/132/34 49/133/34 45/134/34

vt -8.78617 3.70856
vn -0.0347049 -0.53285 0.845498
vt -9.69309 2.51381
vt -8.59135 2.66965
f 51/135/35 3/136/35 49/137/35

vt 11.6043 5.84781
vn -0.653681 0.734041 -0.184077
vt 11.4095 4.80889
vt 12.5113 4.65306
f 51/138/36 4/139/36 3/140/36

vt 7.71657 9.07016
vn 0.15655 0.933866 -0.321539
vt 7.07952 7.97146
vt 7.8662 8.02378
f 51/141/37 45/142/37 4/143/37

vt 2.53673 -10.49
vn -0.131756 0.568605 0.81199
vt 2.02285 -11.477
v 0.31543 0.46988 -0.481516
vt 3.05062 -11.477
vt 2.92214 -10.49
f 49/144/38 3/145/38 52/146/38 50/147/38 

usemtl FrontColor
vt 13.1212 5.22537
vn 2.01216e-13 0.630676 0.776046
vt 17.0581 4.04159
vt 21.1673 3.9171
vt 25.1687 4.86038
v 0.406217 0.903188 -0.833656
vt 28.7896 6.80716
v 0.330178 0.847648 -0.78852
vt 31.7832 9.62476
vt 33.9456 13.1212
vt 35.1294 17.0581
vt 35.2539 21.1673
vt 34.3106 25.1687
vt 32.3638 28.7896
v 0.386997 0.41087 -0.43356
vt 29.5462 31.7832
v 0.475806 0.368246 -0.39892
vt 26.0498 33.9456
v 0.575804 0.344912 -0.379957
vt 22.1129 35.1294
v 0.680177 0.342458 -0.377963
vt 18.0037 35.2539
v 0.781813 0.361052 -0.393074
vt 14.0023 34.3106
v 0.873783 0.399426 -0.424259
vt 10.3814 32.3638
v 0.949822 0.454965 -0.469395
vt 7.38777 29.5462
v 1.00475 0.523885 -0.525404
vt 5.22537 26.0498
v 1.03482 0.601488 -0.588471
vt 4.04159 22.1129
v 1.03798 0.682486 -0.654296
vt 3.9171 18.0037
v 1.01402 0.76136 -0.718395
vt 4.86038 14.0023
v 0.96457 0.832733 -0.776399
vt 6.80716 10.3814
v 0.893003 0.891743 -0.824355
vt 9.62476 7.38777
f 29/148/39 27/149/39 24/150/39 25/151/39 53/152/39 54/153/39 8/154/39 6/155/39 2/156/39 3/157/39 52/158/39 55/159/39 56/160/39 57/161/39 58/162/39 59/163/39 60/164/39 61/165/39 62/166/39 63/167/39 64/168/39 65/169/39 66/170/39 67/171/39 

usemtl Wood_Veneer_02
vt 1.23799 1.55681
v 0.824718 0.96502 -0.89357
vt 1.21658 1.39232
v 0.71222 0.991271 -0.914903
vt 1.60199 1.39232
vt 1.58058 1.55681
f 29/172/15 68/173/15 69/174/15 27/175/15 

vt 0.515718 1.82969
vn 0.0786847 0.722313 0.687076
v 0.924628 0.917068 -0.8546
vt 0.494306 1.6652
vt 0.879718 1.6652
vt 0.858306 1.82969
f 67/176/40 70/177/40 68/178/40 29/179/40 

vt -0.253374 1.90843
vn 0.108932 0.703144 0.702654
v 1.00514 0.850682 -0.800649
vt -0.274786 1.74394
vt 0.110626 1.74394
vt 0.0892145 1.90843
f 66/180/41 71/181/41 70/182/41 67/183/41 

vt -1.01687 1.78768
vn 0.131756 0.678553 0.722638
v 1.06077 0.770386 -0.735395
vt -1.03828 1.62319
vt -0.652872 1.62319
vt -0.674283 1.78768
f 65/184/42 72/185/42 71/186/42 66/187/42 

vt -1.72275 1.47565
vn 0.145601 0.650216 0.745667
v 1.08772 0.681654 -0.663284
vt -1.74416 1.31116
vt -1.35874 1.31116
vt -1.38016 1.47565
f 64/188/43 73/189/43 72/190/43 65/191/43 

vt -2.32289 0.993624
vn 0.149523 0.620064 0.770171
v 1.08417 0.590531 -0.58923
vt -2.3443 0.829134
vt -1.95889 0.829134
vt -1.9803 0.993624
f 63/192/44 74/193/44 73/194/44 64/195/44 

vt -2.77641 0.374438
vn 0.143256 0.590151 0.794481
v 1.05034 0.503227 -0.518281
vt -2.79782 0.209948
vt -2.41241 0.209948
vt -2.43382 0.374438
f 62/196/45 75/197/45 74/198/45 63/199/45 

vt -3.05239 -0.339708
vn 0.127226 0.562516 0.816939
v 0.98855 0.425692 -0.45527
vt -3.0738 -0.504197
vt -2.68839 -0.504197
vt -2.7098 -0.339708
f 61/200/46 76/201/46 75/202/46 62/203/46 

vt -3.13203 -1.10015
vn 0.102526 0.539043 0.836015
v 0.903006 0.363211 -0.404492
vt -3.15344 -1.26463
vt -2.76803 -1.26463
vt -2.78944 -1.10015
f 60/204/47 77/205/47 76/206/47 61/207/47 

vt -3.0099 -1.85505
vn 0.0708387 0.521331 0.850409
v 0.799539 0.32004 -0.369408
vt -3.03131 -2.01954
vt -2.6459 -2.01954
vt -2.66731 -1.85505
f 59/208/48 78/209/48 77/210/48 60/211/48 

vt -2.69433 -2.55298
vn 0.0343239 0.510586 0.859141
v 0.6852 0.299122 -0.352409
vt -2.71574 -2.71747
vt -2.33033 -2.71747
vt -2.35174 -2.55298
f 58/212/49 79/213/49 78/214/49 59/215/49 

vt -2.20681 -3.14637
vn -0.0045299 0.507542 0.861615
v 0.56778 0.301883 -0.354652
vt -2.22822 -3.31086
vt -1.84281 -3.31086
vt -1.86422 -3.14637
f 57/216/50 80/217/50 79/218/50 58/219/50 

vt -1.58058 -3.59479
vn -0.043075 0.512406 0.857662
v 0.455282 0.328134 -0.375986
vt -1.60199 -3.75928
vt -1.21658 -3.75928
vt -1.23799 -3.59479
f 56/220/51 81/221/51 80/222/51 57/223/51 

vt -0.858306 -3.86767
vn -0.0786847 0.524846 0.847553
v 0.355372 0.376086 -0.414956
vt -0.879718 -4.03215
vt -0.494306 -4.03215
vt -0.515718 -3.86767
f 55/224/52 82/225/52 81/226/52 56/227/52 

vt -0.0892145 -3.94641
vn -0.108932 0.544015 0.831975
v 0.274859 0.442472 -0.468906
vt -0.110626 -4.1109
vt 0.274786 -4.1109
vt 0.253374 -3.94641
f 52/228/53 83/229/53 82/230/53 55/231/53 

vt 0.674283 -3.82566
v 0.21923 0.522767 -0.53416
vt 0.652872 -3.99015
vt 1.03828 -3.99015
vt 1.01687 -3.82566
f 3/232/38 84/233/38 83/234/38 52/235/38 

vt 1.38016 -3.51363
v 0.192276 0.6115 -0.606271
vt 1.35874 -3.67812
vt 1.74416 -3.67812
vt 1.72275 -3.51363
f 2/236/1 85/237/1 84/238/1 3/239/1 

vt 1.9803 -3.0316
v 0.195833 0.702623 -0.680325
vt 1.95889 -3.19609
vt 2.3443 -3.19609
vt 2.32289 -3.0316
f 6/240/2 86/241/2 85/242/2 2/243/2 

vt 2.43382 -2.41242
v 0.22966 0.789926 -0.751275
vt 2.41241 -2.57691
vt 2.79782 -2.57691
vt 2.77641 -2.41242
f 8/244/3 87/245/3 86/246/3 6/247/3 

vt 2.7098 -1.69827
vn -0.127226 0.684642 0.71769
v 0.29145 0.867461 -0.814286
vt 2.68839 -1.86276
vt 3.0738 -1.86276
vt 3.05239 -1.69827
f 54/248/54 88/249/54 87/250/54 8/251/54 

vt 2.78944 -0.937833
vn -0.102526 0.708116 0.698613
v 0.376994 0.929943 -0.865063
vt 2.76803 -1.10232
vt 3.15344 -1.10232
vt 3.13203 -0.937833
f 53/252/55 89/253/55 88/254/55 54/255/55 

vt 2.66731 -0.182926
vn -0.0708387 0.725828 0.684219
v 0.480461 0.973114 -0.900147
vt 2.6459 -0.347416
vt 3.03131 -0.347416
vt 3.0099 -0.182926
f 25/256/56 90/257/56 89/258/56 53/259/56 

vt 2.35174 0.515004
v 0.5948 0.994031 -0.917147
vt 2.33033 0.350515
vt 2.71574 0.350515
vt 2.69433 0.515004
f 24/260/13 91/261/13 90/262/13 25/263/13 

vt 1.86422 1.1084
vt 1.84281 0.943906
vt 2.22822 0.943906
vt 2.20681 1.1084
f 27/264/14 69/265/14 91/266/14 24/267/14 

usemtl FrontColor
vt 25.8666 3.01974
vt 29.9401 5.20987
vt 33.3079 8.37967
vt 35.7406 12.3131
vt 37.0724 16.7422
vt 37.2124 21.365
vt 36.1512 25.8666
vt 33.9611 29.9401
vt 30.7913 33.3079
vt 26.8579 35.7406
vt 22.4288 37.0724
vt 17.806 37.2124
vt 13.3044 36.1512
vt 9.23091 33.9611
vt 5.86305 30.7913
vt 3.43035 26.8579
vt 2.0986 22.4288
vt 1.95855 17.806
vt 3.01974 13.3044
vt 5.20987 9.23091
vt 8.37967 5.86305
vt 12.3131 3.43035
vt 16.7422 2.0986
vt 21.365 1.95855
f 90/268/39 89/269/39 88/270/39 87/271/39 86/272/39 85/273/39 84/274/39 83/275/39 82/276/39 81/277/39 80/278/39 79/279/39 78/280/39 77/281/39 76/282/39 75/283/39 74/284/39 73/285/39 72/286/39 71/287/39 70/288/39 68/289/39 69/290/39 91/291/39 

usemtl Metal_Corrugated_Shiny
v 0.347771 0.956698 -0.896471
vt 9.15817 -1.53572
vt 9.09394 -1.04225
vt 7.9377 -1.04225
v 0.462734 1.00467 -0.935453
vt 7.87347 -1.53572
f 92/292/56 89/293/56 90/294/56 93/295/56 

v 0.252722 0.887274 -0.840051
vt 9.52456 -3.80044
vt 9.46032 -3.30697
vt 8.30409 -3.30697
vt 8.23985 -3.80044
f 94/296/55 88/297/55 89/298/55 92/299/55 

v 0.184066 0.801124 -0.770039
vt 9.28564 -6.08175
vt 9.2214 -5.58828
vt 8.06517 -5.58828
vt 8.00093 -6.08175
f 95/300/54 87/301/54 88/302/54 94/303/54 

v 0.146481 0.70412 -0.691206
vt 8.45769 -8.22419
vt 8.39345 -7.73072
vt 7.23722 -7.73072
vt 7.17298 -8.22419
f 96/304/3 86/305/3 87/306/3 95/307/3 

v 0.142529 0.602872 -0.608924
vt 7.09714 -10.0817
vt 7.0329 -9.58828
vt 5.87667 -9.58828
vt 5.81243 -10.0817
f 97/308/2 85/309/2 86/310/2 96/311/2 

v 0.172478 0.50428 -0.528801
vt 5.29671 -11.5278
vt 5.23247 -11.0344
vt 4.07623 -11.0344
vt 4.012 -11.5278
f 98/312/1 84/313/1 85/314/1 97/315/1 

v 0.234288 0.415063 -0.456296
vt 3.17909 -12.4639
vt 3.11485 -11.9704
vt 1.95861 -11.9704
vt 1.89438 -12.4639
f 99/316/38 83/317/38 84/318/38 98/319/38 

v 0.323747 0.341301 -0.396352
vt 0.888592 -12.8262
vt 0.824357 -12.3327
vt -0.331879 -12.3327
vt -0.396114 -12.8262
f 100/320/53 82/321/53 83/322/53 99/323/53 

v 0.434758 0.288021 -0.353052
vt -1.41868 -12.5899
vt -1.48292 -12.0965
vt -2.63915 -12.0965
vt -2.70339 -12.5899
f 101/324/52 81/325/52 82/326/52 100/327/52 

v 0.559755 0.258853 -0.329348
vt -3.5855 -11.7713
vt -3.64974 -11.2778
vt -4.80597 -11.2778
vt -4.87021 -11.7713
f 102/328/51 80/329/51 81/330/51 101/331/51 

v 0.690222 0.255786 -0.326855
vt -5.4642 -10.4261
vt -5.52843 -9.93259
vt -6.68467 -9.93259
vt -6.7489 -10.4261
f 103/332/50 79/333/50 80/334/50 102/335/50 

v 0.817266 0.279028 -0.345743
vt -6.92674 -8.64589
vt -6.99098 -8.15242
vt -8.14721 -8.15242
vt -8.21145 -8.64589
f 104/336/49 78/337/49 79/338/49 103/339/49 

v 0.932229 0.326995 -0.384725
vt -7.87347 -6.55209
vt -7.9377 -6.05863
vt -9.09394 -6.05863
vt -9.15817 -6.55209
f 105/340/48 77/341/48 78/342/48 104/343/48 

v 1.02728 0.396419 -0.441145
vt -8.23985 -4.28737
vt -8.30409 -3.7939
vt -9.46032 -3.7939
vt -9.52456 -4.28737
f 106/344/47 76/345/47 77/346/47 105/347/47 

v 1.09593 0.482569 -0.511157
vt -8.00093 -2.00606
vt -8.06517 -1.51259
vt -9.2214 -1.51259
vt -9.28564 -2.00606
f 107/348/46 75/349/46 76/350/46 106/351/46 

v 1.13352 0.579573 -0.58999
vt -7.17298 0.136376
vt -7.23722 0.629845
vt -8.39345 0.629845
vt -8.45769 0.136376
f 108/352/45 74/353/45 75/354/45 107/355/45 

v 1.13747 0.680821 -0.672272
vt -5.81243 1.99393
vt -5.87667 2.4874
vt -7.0329 2.4874
vt -7.09714 1.99393
f 109/356/44 73/357/44 74/358/44 108/359/44 

v 1.10752 0.779413 -0.752395
vt -4.012 3.44002
vt -4.07623 3.93349
vt -5.23247 3.93349
vt -5.29671 3.44002
f 110/360/43 72/361/43 73/362/43 109/363/43 

v 1.04571 0.86863 -0.8249
vt -1.89438 4.37609
vt -1.95861 4.86956
vt -3.11485 4.86956
vt -3.17909 4.37609
f 111/364/42 71/365/42 72/366/42 110/367/42 

v 0.956253 0.942392 -0.884845
vt 0.396114 4.73836
vt 0.331879 5.23183
vt -0.824357 5.23183
vt -0.888592 4.73836
f 112/368/41 70/369/41 71/370/41 111/371/41 

v 0.845242 0.995672 -0.928145
vt 2.70339 4.50212
vt 2.63915 4.99559
vt 1.48292 4.99559
vt 1.41868 4.50212
f 113/372/40 68/373/40 70/374/40 112/375/40 

v 0.720245 1.02484 -0.951849
vt 4.87021 3.68349
vt 4.80597 4.17696
vt 3.64974 4.17696
vt 3.5855 3.68349
f 114/376/15 69/377/15 68/378/15 113/379/15 

v 0.589778 1.02791 -0.954341
vt 6.7489 2.33825
vt 6.68467 2.83172
vt 5.52843 2.83172
vt 5.4642 2.33825
f 115/380/14 91/381/14 69/382/14 114/383/14 

vt 8.21145 0.558076
vt 8.14721 1.05154
vt 6.99098 1.05154
vt 6.92674 0.558076
f 93/384/13 90/385/13 91/386/13 115/387/13 

vt 8.21145 5.21654
vn -0.22945 0.755342 -0.61385
vt 6.92674 5.21654
v 0.589778 1.0216 -0.962102
vt 6.92674 5.11811
v 0.462734 0.998359 -0.943213
vt 8.21145 5.11811
f 93/388/57 115/389/57 116/390/57 117/391/57 

vt 6.7489 5.21654
vn 0.0302817 0.775691 -0.630387
vt 5.4642 5.21654
v 0.720245 1.01853 -0.959609
vt 5.4642 5.11811
vt 6.7489 5.11811
f 115/392/58 114/393/58 118/394/58 116/395/58 

vt 4.87021 5.21654
vn 0.28795 0.743177 -0.603964
vt 3.5855 5.21654
v 0.845242 0.989366 -0.935905
vt 3.5855 5.11811
vt 4.87021 5.11811
f 114/396/59 113/397/59 119/398/59 118/399/59 

vt 2.70339 5.21654
vn 0.525995 0.660018 -0.536382
vt 1.41868 5.21654
v 0.956253 0.936085 -0.892605
vt 1.41868 5.11811
vt 2.70339 5.11811
f 113/400/60 112/401/60 120/402/60 119/403/60 

vt 0.396114 5.21654
vn 0.728195 0.531879 -0.432246
vt -0.888592 5.21654
v 1.04571 0.862323 -0.83266
vt -0.888592 5.11811
vt 0.396114 5.11811
f 112/404/61 111/405/61 121/406/61 120/407/61 

vt -1.89438 5.21654
vn 0.880769 0.367494 -0.298654
vt -3.17909 5.21654
v 1.10752 0.773106 -0.760156
vt -3.17909 5.11811
vt -1.89438 5.11811
f 111/408/62 110/409/62 122/410/62 121/411/62 

vt -4.012 5.21654
vn 0.97332 0.178064 -0.144709
vt -5.29671 5.21654
v 1.13747 0.674514 -0.680032
vt -5.29671 5.11811
vt -4.012 5.11811
f 110/412/63 109/413/63 123/414/63 122/415/63 

vt -5.81243 5.21654
vn 0.999541 -0.0235 0.019098
vt -7.09714 5.21654
v 1.13352 0.573266 -0.59775
vt -7.09714 5.11811
vt -5.81243 5.11811
f 109/416/64 108/417/64 124/418/64 123/419/64 

vt -7.17298 5.21654
vn 0.957645 -0.223463 0.181603
vt -8.45769 5.21654
v 1.09593 0.476262 -0.518917
vt -8.45769 5.11811
vt -7.17298 5.11811
f 108/420/65 107/421/65 125/422/65 124/423/65 

vt -8.00093 5.21654
vn 0.850487 -0.408197 0.331733
vt -9.28564 5.21654
v 1.02728 0.390113 -0.448905
vt -9.28564 5.11811
vt -8.00093 5.11811
f 107/424/66 106/425/66 126/426/66 125/427/66 

vt -8.23985 5.21654
vn 0.68537 -0.565113 0.459255
vt -9.52456 5.21654
v 0.932229 0.320689 -0.392486
vt -9.52456 5.11811
vt -8.23985 5.11811
f 106/428/67 105/429/67 127/430/67 126/431/67 

vt -7.87347 5.21654
vn 0.473546 -0.683518 0.55548
vt -9.15817 5.21654
v 0.817266 0.272721 -0.353504
vt -9.15817 5.11811
vt -7.87347 5.11811
f 105/432/68 104/433/68 128/434/68 127/435/68 

vt -6.92674 5.21654
vn 0.22945 -0.755342 0.61385
vt -8.21145 5.21654
v 0.690222 0.249479 -0.334615
vt -8.21145 5.11811
vt -6.92674 5.11811
f 104/436/69 103/437/69 129/438/69 128/439/69 

vt -5.4642 5.21654
vn -0.0302817 -0.775691 0.630387
vt -6.7489 5.21654
v 0.559755 0.252546 -0.337108
vt -6.7489 5.11811
vt -5.4642 5.11811
f 103/440/70 102/441/70 130/442/70 129/443/70 

vt -3.5855 5.21654
vn -0.28795 -0.743177 0.603964
vt -4.87021 5.21654
v 0.434758 0.281714 -0.360812
vt -4.87021 5.11811
vt -3.5855 5.11811
f 102/444/71 101/445/71 131/446/71 130/447/71 

vt -1.41868 5.21654
vn -0.525995 -0.660018 0.536382
vt -2.70339 5.21654
v 0.323747 0.334994 -0.404112
vt -2.70339 5.11811
vt -1.41868 5.11811
f 101/448/72 100/449/72 132/450/72 131/451/72 

vt 0.888592 5.21654
vn -0.728195 -0.531879 0.432246
vt -0.396114 5.21654
v 0.234288 0.408757 -0.464057
vt -0.396114 5.11811
vt 0.888592 5.11811
f 100/452/73 99/453/73 133/454/73 132/455/73 

vt 3.17909 5.21654
vn -0.880769 -0.367494 0.298654
vt 1.89438 5.21654
v 0.172478 0.497974 -0.536561
vt 1.89438 5.11811
vt 3.17909 5.11811
f 99/456/74 98/457/74 134/458/74 133/459/74 

vt 5.29671 5.21654
vn -0.97332 -0.178064 0.144709
vt 4.012 5.21654
v 0.142529 0.596565 -0.616685
vt 4.012 5.11811
vt 5.29671 5.11811
f 98/460/75 97/461/75 135/462/75 134/463/75 

vt 7.09714 5.21654
vn -0.999541 0.0235 -0.019098
vt 5.81243 5.21654
v 0.146481 0.697813 -0.698967
vt 5.81243 5.11811
vt 7.09714 5.11811
f 97/464/76 96/465/76 136/466/76 135/467/76 

vt 8.45769 5.21654
vn -0.957645 0.223463 -0.181603
vt 7.17298 5.21654
v 0.184066 0.794817 -0.7778
vt 7.17298 5.11811
vt 8.45769 5.11811
f 96/468/77 95/469/77 137/470/77 136/471/77 

vt 9.28564 5.21654
vn -0.850487 0.408197 -0.331733
vt 8.00093 5.21654
v 0.252722 0.880967 -0.847812
vt 8.00093 5.11811
vt 9.28564 5.11811
f 95/472/78 94/473/78 138/474/78 137/475/78 

vt 9.52456 5.21654
vn -0.68537 0.565113 -0.459255
vt 8.23985 5.21654
v 0.347771 0.950391 -0.904231
vt 8.23985 5.11811
vt 9.52456 5.11811
f 94/476/79 92/477/79 139/478/79 138/479/79 

vt 9.15817 5.21654
vn -0.473546 0.683518 -0.55548
vt 7.87347 5.21654
vt 7.87347 5.11811
vt 9.15817 5.11811
f 92/480/80 93/481/80 117/482/80 139/483/80 

vt -8.04395 1.66531
vn -2.01216e-13 -0.630676 -0.776046
v 0.406721 0.886878 -0.852615
vt -8.59527 3.07922
vt -9.17548 2.27368
f 117/484/81 140/485/81 139/486/81

v 0.498493 0.925169 -0.883734
vt -7.69199 2.59357
f 117/484/81 141/487/81 140/485/81

vt -6.79352 1.37054
f 116/488/81 141/487/81 117/484/81

v 0.599909 0.943722 -0.898812
vt -6.69381 2.35826
f 116/488/81 142/489/81 141/487/81

v 0.704057 0.941274 -0.896822
vt -5.66873 2.38932
f 116/488/81 143/490/81 142/489/81

vt -5.5094 1.40944
f 118/491/81 143/490/81 116/488/81

v 0.80384 0.91799 -0.877899
vt -4.68662 2.68462
f 118/491/81 144/492/81 143/490/81

vt -4.27911 1.77937
f 119/493/81 144/492/81 118/491/81

v 0.892457 0.875457 -0.843334
vt -3.8144 3.22406
f 119/493/81 145/494/81 144/492/81

vt -3.18648 2.45512
f 120/495/81 145/494/81 119/493/81

v 0.963869 0.816575 -0.795482
vt -3.11152 3.97086
f 120/495/81 146/496/81 145/494/81

v 1.01321 0.745356 -0.737603
vt -2.62588 4.87413
f 120/495/81 147/497/81 146/496/81

v 1.03712 0.666652 -0.673643
vt -2.39057 5.87231
f 120/495/81 148/498/81 147/497/81

vt -2.30598 3.39064
f 148/498/81 120/495/81 121/499/81

vt -2.48743 9.37964
f 121/499/81 126/500/81 148/498/81

vt -1.81168 8.28701
f 121/499/81 125/501/81 126/500/81

vt -1.69762 4.52217
f 122/502/81 125/501/81 121/499/81

vt -1.44174 7.05672
f 122/502/81 124/503/81 125/501/81

vt -1.40284 5.7726
f 124/503/81 122/502/81 123/504/81

v 1.03396 0.585829 -0.607959
vt -2.42162 6.89739
f 148/498/81 126/500/81 149/505/81

v 1.00396 0.508393 -0.545029
vt -2.71693 7.8795
f 149/505/81 126/500/81 150/506/81

vt -3.42294 10.2601
f 150/506/81 126/500/81 127/507/81

v 0.949154 0.439622 -0.48914
vt -3.25636 8.75172
f 150/506/81 127/507/81 151/508/81

v 0.873279 0.384202 -0.444102
vt -4.00316 9.4546
f 151/508/81 127/507/81 152/509/81

vt -4.55447 10.8685
f 152/509/81 127/507/81 128/510/81

v 0.781507 0.345911 -0.412984
vt -4.90643 9.94024
f 152/509/81 128/510/81 153/511/81

vt -5.8049 11.1633
f 153/511/81 128/510/81 129/512/81

v 0.680091 0.327357 -0.397906
vt -5.90462 10.1756
f 153/511/81 129/512/81 154/513/81

vt -7.08902 11.1244
f 154/513/81 129/512/81 130/514/81

v 0.575943 0.329806 -0.399895
vt -6.9297 10.1445
f 154/513/81 130/514/81 155/515/81

v 0.47616 0.35309 -0.418818
vt -7.91181 9.84919
f 155/515/81 130/514/81 156/516/81

vt -8.31931 10.7544
f 156/516/81 130/514/81 131/517/81

v 0.387543 0.395622 -0.453383
vt -8.78402 9.30976
f 156/516/81 131/517/81 157/518/81

vt -9.41194 10.0787
f 157/518/81 131/517/81 132/519/81

v 0.316131 0.454505 -0.501235
vt -9.4869 8.56296
f 157/518/81 132/519/81 158/520/81

vt -10.2924 9.14318
f 158/520/81 132/519/81 133/521/81

v 0.266789 0.525724 -0.559114
vt -9.97255 7.65969
f 158/520/81 133/521/81 159/522/81

v 0.242881 0.604428 -0.623074
vt -10.2079 6.6615
f 159/522/81 133/521/81 160/523/81

vt -10.7867 4.24681
f 137/524/81 160/523/81 133/521/81

v 0.246037 0.685251 -0.688758
vt -10.1768 5.63643
f 137/524/81 161/525/81 160/523/81

vt -10.111 3.15418
f 138/526/81 161/525/81 137/524/81

v 0.27604 0.762687 -0.751688
vt -9.8815 4.65431
f 138/526/81 162/527/81 161/525/81

v 0.330846 0.831458 -0.807577
vt -9.34206 3.7821
f 138/526/81 163/528/81 162/527/81

f 139/486/81 163/528/81 138/526/81

f 139/486/81 140/485/81 163/528/81

vt -9.39498 5.11811
vt -8.36943 5.11811
v 0.406721 0.893184 -0.844855
vt -8.36943 5.21654
v 0.330846 0.837765 -0.799817
vt -9.39498 5.21654
f 163/529/67 140/530/67 164/531/67 165/532/67 

vt -9.0286 5.11811
vt -8.00305 5.11811
v 0.498493 0.931476 -0.875973
vt -8.00305 5.21654
vt -9.0286 5.21654
f 140/533/68 141/534/68 166/535/68 164/536/68 

vt -8.08187 5.11811
vt -7.05632 5.11811
v 0.599909 0.950029 -0.891051
vt -7.05632 5.21654
vt -8.08187 5.21654
f 141/537/69 142/538/69 167/539/69 166/540/69 

vt -6.61932 5.11811
vt -5.59378 5.11811
v 0.704057 0.94758 -0.889061
vt -5.59378 5.21654
vt -6.61932 5.21654
f 142/541/70 143/542/70 168/543/70 167/544/70 

vt -4.74063 5.11811
vt -3.71508 5.11811
v 0.80384 0.924297 -0.870139
vt -3.71508 5.21654
vt -4.74063 5.21654
f 143/545/71 144/546/71 169/547/71 168/548/71 

vt -2.57381 5.11811
vt -1.54826 5.11811
v 0.892457 0.881764 -0.835574
vt -1.54826 5.21654
vt -2.57381 5.21654
f 144/549/72 145/550/72 170/551/72 169/552/72 

vt -0.266535 5.11811
vt 0.759013 5.11811
v 0.963869 0.822882 -0.787722
vt 0.759013 5.21654
vt -0.266535 5.21654
f 145/553/73 146/554/73 171/555/73 170/556/73 

vt 2.02396 5.11811
vt 3.04951 5.11811
v 1.01321 0.751662 -0.729843
vt 3.04951 5.21654
vt 2.02396 5.21654
f 146/557/74 147/558/74 172/559/74 171/560/74 

vt 4.14158 5.11811
vt 5.16713 5.11811
v 1.03712 0.672959 -0.665882
vt 5.16713 5.21654
vt 4.14158 5.21654
f 147/561/75 148/562/75 173/563/75 172/564/75 

vt 5.94201 5.11811
vt 6.96756 5.11811
v 1.03396 0.592135 -0.600199
vt 6.96756 5.21654
vt 5.94201 5.21654
f 148/565/76 149/566/76 174/567/76 173/568/76 

vt 7.30256 5.11811
vt 8.32811 5.11811
v 1.00396 0.514699 -0.537268
vt 8.32811 5.21654
vt 7.30256 5.21654
f 149/569/77 150/570/77 175/571/77 174/572/77 

vt 8.13051 5.11811
vt 9.15606 5.11811
v 0.949154 0.445928 -0.48138
vt 9.15606 5.21654
vt 8.13051 5.21654
f 150/573/78 151/574/78 176/575/78 175/576/78 

vt 8.36943 5.11811
vt 9.39498 5.11811
v 0.873279 0.390509 -0.436342
vt 9.39498 5.21654
vt 8.36943 5.21654
f 151/577/79 152/578/79 177/579/79 176/580/79 

vt 8.00305 5.11811
vt 9.0286 5.11811
v 0.781507 0.352218 -0.405223
vt 9.0286 5.21654
vt 8.00305 5.21654
f 152/581/80 153/582/80 178/583/80 177/584/80 

vt 7.05632 5.11811
vt 8.08187 5.11811
v 0.680091 0.333664 -0.390145
vt 8.08187 5.21654
vt 7.05632 5.21654
f 153/585/57 154/586/57 179/587/57 178/588/57 

vt 5.59378 5.11811
vt 6.61932 5.11811
v 0.575943 0.336113 -0.392135
vt 6.61932 5.21654
vt 5.59378 5.21654
f 154/589/58 155/590/58 180/591/58 179/592/58 

vt 3.71508 5.11811
vt 4.74063 5.11811
v 0.47616 0.359397 -0.411057
vt 4.74063 5.21654
vt 3.71508 5.21654
f 155/593/59 156/594/59 181/595/59 180/596/59 

vt 1.54826 5.11811
vt 2.57381 5.11811
v 0.387543 0.401929 -0.445622
vt 2.57381 5.21654
vt 1.54826 5.21654
f 156/597/60 157/598/60 182/599/60 181/600/60 

vt -0.759013 5.11811
vt 0.266535 5.11811
v 0.316131 0.460811 -0.493475
vt 0.266535 5.21654
vt -0.759013 5.21654
f 157/601/61 158/602/61 183/603/61 182/604/61 

vt -3.04951 5.11811
vt -2.02396 5.11811
v 0.266789 0.532031 -0.551353
vt -2.02396 5.21654
vt -3.04951 5.21654
f 158/605/62 159/606/62 184/607/62 183/608/62 

vt -5.16713 5.11811
vt -4.14158 5.11811
v 0.242881 0.610734 -0.615314
vt -4.14158 5.21654
vt -5.16713 5.21654
f 159/609/63 160/610/63 185/611/63 184/612/63 

vt -6.96756 5.11811
vt -5.94201 5.11811
v 0.246037 0.691558 -0.680997
vt -5.94201 5.21654
vt -6.96756 5.21654
f 160/613/64 161/614/64 186/615/64 185/616/64 

vt -8.32811 5.11811
vt -7.30256 5.11811
v 0.27604 0.768994 -0.743928
vt -7.30256 5.21654
vt -8.32811 5.21654
f 161/617/65 162/618/65 187/619/65 186/620/65 

vt -9.15606 5.11811
vt -8.13051 5.11811
vt -8.13051 5.21654
vt -9.15606 5.21654
f 162/621/66 163/622/66 165/623/66 187/624/66 

usemtl Wood_Veneer_02
vt -2.564 0.864525
vn -2.01118e-13 -0.630676 -0.776046
vt -2.23127 0.786087
vt -2.3099 3.3815
vt -2.63727 3.28306
vt -2.92801 3.10325
vt -3.1623 2.85432
vt -3.32418 2.55323
vt -3.40262 2.2205
vt -3.39227 1.87881
vt -3.29383 1.55144
vt -3.11402 1.2607
vt -2.86509 1.02641
f 166/625/82 167/626/82 180/627/82 181/628/82 182/629/82 183/630/82 184/631/82 185/632/82 186/633/82 187/634/82 165/635/82 164/636/82 

v 0.606838 0.358679 -0.410474
vt -2.20854 3.2861
vn -2.02383e-13 -0.630676 -0.776046
f 188/637/83 180/627/83 167/626/83

v 0.651013 0.35764 -0.40963
vt -2.06361 3.29049
f 189/638/83 180/627/83 188/637/83

vt -1.96821 3.39185
f 189/638/83 179/639/83 180/627/83

v 0.673162 0.925015 -0.870723
vt -1.99094 0.891838
f 179/639/83 189/638/83 190/640/83

v 0.668661 0.8097 -0.777009
vt -2.00571 1.37935
f 190/640/83 189/638/83 191/641/83

v 0.667202 0.772346 -0.746652
vt -2.01049 1.53727
f 191/641/83 189/638/83 192/642/83

v 0.657009 0.511239 -0.534456
vt -2.04393 2.64113
f 192/642/83 189/638/83 193/643/83

v 0.655555 0.473993 -0.504188
vt -2.0487 2.79859
f 193/643/83 189/638/83 194/644/83

usemtl Wood_Veneer_01
vt -0.480113 0.00546807
v 0.657968 0.460126 -0.647547
vt -0.354518 -0.0601487
vt -0.398092 0.00546807
f 189/645/64 195/646/64 194/647/64

vt -0.275742 0.428069
vn -0.0140223 -0.918176 -0.395924
vt -0.251575 0.286366
vt -0.251575 0.428069
f 188/648/84 195/649/84 189/650/84

v 0.613793 0.461164 -0.648391
vt -0.275742 0.286366
f 195/649/84 188/648/84 196/651/84

vt 0.354518 -0.0601487
vt 0.480113 0.00546807
v 0.61138 0.475032 -0.505032
vt 0.398092 0.00546807
f 196/652/76 188/653/76 197/654/76

usemtl Wood_Veneer_02
vt -2.19364 2.7942
f 167/626/83 197/655/83 188/637/83

v 0.612834 0.512278 -0.535301
vt -2.18887 2.63674
f 167/626/83 198/656/83 197/655/83

v 0.623027 0.773385 -0.747496
vt -2.15542 1.53288
f 167/626/83 199/657/83 198/656/83

v 0.624445 0.8097 -0.777009
vt -2.15077 1.37935
f 167/626/83 200/658/83 199/657/83

v 0.628987 0.926053 -0.871567
vt -2.13587 0.887448
f 167/626/83 201/659/83 200/658/83

f 167/626/83 190/640/83 201/659/83

vt -1.88958 0.796439
f 168/660/83 190/640/83 167/626/83

f 190/640/83 168/660/83 179/639/83

vt -1.63548 3.31341
vn -2.01185e-13 -0.630676 -0.776046
vt -1.56221 0.894874
vt -1.27147 1.07469
vt -1.03717 1.32362
vt -0.875293 1.62471
vt -0.796855 1.95744
vt -0.807207 2.29913
vt -0.905643 2.6265
vt -1.08545 2.91724
vt -1.33439 3.15153
f 178/661/85 179/639/85 168/660/85 169/662/85 170/663/85 171/664/85 172/665/85 173/666/85 174/667/85 175/668/85 176/669/85 177/670/85 

usemtl Wood_Veneer_01
vt 0.251575 -0.0685665
vn 0.0139863 -0.201107 -0.979469
v 0.622009 0.671622 -0.819426
vt 0.275742 -0.210634
vt 0.275742 -0.0685665
f 190/671/86 202/672/86 201/673/86

vt 0.281858 -0.203045
vn -2.66576e-13 -0.198415 -0.980118
vt 0.253887 -0.061678
v 0.666225 0.671622 -0.819426
vt 0.257681 -0.203045
f 202/674/87 190/675/87 203/676/87

vt -0.205428 -0.0601487
vt -0.0801537 0.00546807
vt -0.161443 0.00546807
f 203/677/64 190/678/64 191/679/64

vt -0.187774 0.00546807
v 0.665579 0.680294 -0.77493
vt -0.217098 -0.0382765
v 0.658618 0.501994 -0.63003
vt -0.342787 -0.0382765
vt -0.371836 0.00546807
f 191/679/64 192/680/64 204/681/64 205/682/64 193/683/64 194/647/64 195/646/64 203/677/64 

vt -0.251575 -0.152676
vn -0.0251533 -0.293156 0.955734
vt -0.251575 -0.100012
vt -0.275742 -0.100012
v 0.621403 0.681333 -0.775774
vt -0.275742 -0.152676
f 204/684/88 192/685/88 199/686/88 206/687/88 

usemtl Wood_Veneer_02
f 193/643/83 199/657/83 192/642/83

f 199/657/83 193/643/83 198/656/83

usemtl Wood_Veneer_01
vt 0.251575 0.210255
vn 0.0252262 0.995078 -0.0958346
vt 0.251575 0.157743
v 0.614443 0.503033 -0.630874
vt 0.275742 0.157743
vt 0.275742 0.210255
f 193/688/89 205/689/89 207/690/89 198/691/89 

vt 0.26184 0.335011
vn 2.00646e-13 0.630676 0.776046
vt 0.258034 0.20938
vt 0.28219 0.208648
vt 0.285996 0.33428
f 205/692/90 204/693/90 206/694/90 207/695/90 

vt 0.371836 0.00546807
vt 0.342787 -0.0382765
vt 0.217098 -0.0382765
vt 0.187774 0.00546807
vt 0.162175 0.00546807
vt 0.20616 -0.0601487
f 197/654/76 198/696/76 207/697/76 206/698/76 199/699/76 200/700/76 202/701/76 196/652/76 

vt 0.0801537 0.00546807
f 201/702/76 202/701/76 200/700/76

vt -0.257681 0.197715
vn -2.0039e-13 -0.630676 -0.776046
vt -0.262195 0.346737
vt -0.286351 0.346005
vt -0.281858 0.197715
f 203/703/91 195/704/91 196/705/91 202/706/91 

usemtl Metal_Corrugated_Shiny
vt -10.9008 8.01165
f 137/524/81 133/521/81 134/707/81

vt -11.1567 5.4771
f 137/524/81 134/707/81 136/708/81

vt -11.1956 6.76122
f 136/708/81 134/707/81 135/709/81

vt 8.51582 0.438158
vt 8.00194 -0.548779
vt 9.0297 -0.548779
vt 8.90123 0.438158
f 20/710/56 25/711/56 53/712/56 17/713/56 

v 0.533641 0.941526 -0.716625
vt 3.7727 3.84557
vn -0.946751 0.228806 0.226517
vt 2.86578 2.65083
vt 3.96752 2.80666
f 208/714/92 25/715/92 20/716/92

vt 2.53096 8.6306
vn 0.685743 0.70916 -0.163856
vt 2.33614 7.59169
vt 3.43788 7.43585
f 208/717/93 22/718/93 25/719/93

vt -4.67967 8.37107
vn 0.92751 0.0925849 0.362151
vt -5.31672 7.27238
vt -4.53003 7.32469
f 208/720/94 19/721/94 22/722/94

vt -3.51667 3.6186
vn -0.590554 -0.354099 0.725162
vt -3.6663 2.57222
vt -2.87961 2.5199
f 208/723/95 20/724/95 19/725/95

vt 8.49679 -1.82656
vt 8.36832 -2.8135
vt 9.39609 -2.8135
vt 9.26762 -1.82656
f 17/726/55 53/727/55 54/728/55 15/729/55 

vt 8.25787 -4.10788
vt 8.1294 -5.09481
vt 9.15717 -5.09481
vt 8.64328 -4.10788
f 15/730/54 54/731/54 8/732/54 10/733/54 

vt -0.139173 -10.8523
vt -0.267644 -11.8392
vt 0.760122 -11.8392
v 0.450248 0.48044 -0.470769
vt 0.631651 -10.8523
f 50/734/53 52/735/53 55/736/53 209/737/53 

vt -2.44645 -10.6161
vt -2.57492 -11.603
vt -1.54715 -11.603
v 0.483551 0.464456 -0.457779
vt -2.06104 -10.6161
f 209/738/52 55/739/52 56/740/52 210/741/52 

v 0.516855 0.511539 -0.367184
vt 9.13661 3.81932
vn -0.947116 0.219467 0.234107
vt 8.94179 2.78041
vt 10.0435 2.62457
f 211/742/96 210/743/96 56/744/96

vt 11.3137 7.11107
vn -0.545151 0.80895 -0.220023
v 0.547641 0.498392 -0.491801
vt 10.6766 6.01237
vt 11.4633 6.06469
f 211/745/97 212/746/97 210/747/97

vt -8.10908 8.96919
vn 0.935286 0.291769 0.200279
v 0.554354 0.439721 -0.437678
vt -8.25871 7.92282
vt -7.47202 7.8705
f 211/748/98 213/749/98 212/750/98

vt -11.6012 5.69017
vn 0.644914 -0.336699 0.68609
vt -12.5081 4.49542
vt -11.4064 4.65126
f 211/751/99 56/752/99 213/753/99

vt -4.22785 -9.79743
vt -4.74174 -10.7844
vt -3.71397 -10.7844
v 0.591853 0.430971 -0.430567
vt -3.84244 -9.79743
f 213/754/51 56/755/51 57/756/51 214/757/51 

vt -6.49196 -8.45219
vt -6.62043 -9.43912
vt -5.59267 -9.43912
v 0.670133 0.42913 -0.429071
vt -5.72114 -8.45219
f 214/758/50 57/759/50 58/760/50 215/761/50 

vt -7.95451 -6.67201
vt -8.08298 -7.65895
vt -7.05521 -7.65895
v 0.708246 0.436103 -0.434737
vt -7.5691 -6.67201
f 215/762/49 58/763/49 59/764/49 216/765/49 

v 0.746359 0.506143 -0.362799
vt 2.91055 2.9435
vn -0.685743 -0.305414 0.660666
vt 2.71573 1.90459
vt 3.81747 1.74876
f 217/766/100 216/767/100 59/768/100

vt 9.77611 4.86241
vn -0.92751 0.335565 0.164687
v 0.71977 0.494345 -0.488512
vt 9.13906 3.76371
vt 9.92575 3.81603
f 217/769/101 218/770/101 216/771/101

vt -1.57978 9.61488
vn 0.590554 0.782249 -0.198323
v 0.780848 0.457466 -0.452098
vt -1.72941 8.56851
vt -0.94272 8.51619
f 217/772/102 219/773/102 218/774/102

vt -9.21421 7.72853
vn 0.946751 0.17494 0.270292
vt -10.1211 6.53378
vt -9.01939 6.68962
f 217/775/103 59/776/103 219/777/103

vt -8.51582 -4.57822
vt -9.0297 -5.56516
vt -8.00194 -5.56516
v 0.815337 0.471856 -0.463793
vt -8.13041 -4.57822
f 219/778/48 59/779/48 60/780/48 220/781/48 

vt -9.26762 -2.3135
vt -9.39609 -3.30044
vt -8.36832 -3.30044
v 0.872367 0.513511 -0.497645
vt -8.49679 -2.3135
f 220/782/47 60/783/47 61/784/47 221/785/47 

vt -9.0287 -0.0321871
vt -9.15717 -1.01912
vt -8.1294 -1.01912
v 0.892963 0.539355 -0.518648
vt -8.64328 -0.0321871
f 221/786/46 61/787/46 62/788/46 222/789/46 

v 0.91356 0.628268 -0.462047
vt -3.42669 3.7334
vn -0.022671 -0.533133 0.845728
vt -3.62151 2.69449
vt -2.51977 2.53865
f 223/790/104 222/791/104 62/792/104

vt 4.00454 3.64141
vn -0.766546 -0.208987 0.607233
v 0.84517 0.585939 -0.562948
vt 3.36748 2.54272
vt 4.15417 2.59504
f 223/793/105 224/794/105 222/795/105

vt 4.38222 8.5043
vn -0.100115 0.9399 -0.326443
v 0.924836 0.594302 -0.563302
vt 4.23259 7.45793
vt 5.01928 7.40561
f 223/796/106 225/797/106 224/798/106

vt -3.02343 8.6296
vn 0.693994 0.702356 -0.158327
vt -3.93035 7.43485
vt -2.8286 7.59069
f 223/799/107 62/800/107 225/801/107

vt -7.81534 2.11025
vt -8.32922 1.12331
vt -7.30145 1.12331
v 0.936111 0.623403 -0.586952
vt -7.42992 2.11025
f 225/802/45 62/803/45 63/804/45 226/805/45 

vt -6.8402 3.96781
vt -6.96867 2.98087
vt -5.9409 2.98087
v 0.938483 0.684152 -0.636321
vt -6.06937 3.96781
f 226/806/44 63/807/44 64/808/44 227/809/44 

vt -5.03976 5.4139
vt -5.16824 4.42696
vt -4.14047 4.42696
v 0.929498 0.713729 -0.660358
vt -4.65435 5.4139
f 227/810/43 64/811/43 65/812/43 228/813/43 

v 0.920513 0.806374 -0.60679
vt -6.16284 5.7263
vn 0.653681 -0.330295 0.680886
vt -6.35766 4.68739
vt -5.25592 4.53155
f 229/814/108 228/815/108 65/816/108

vt -2.62013 4.16332
vn -0.15655 -0.505716 0.848377
v 0.850385 0.719518 -0.671506
vt -3.25718 3.06463
vt -2.47049 3.11695
f 229/817/109 230/818/109 228/819/109

vt 6.28446 6.28801
vn -0.732139 0.672373 -0.109029
v 0.90197 0.770072 -0.706146
vt 6.13483 5.24164
vt 6.92152 5.18932
f 229/820/110 231/821/110 230/822/110

vt 3.34466 7.86554
vn 0.0347049 0.936596 -0.348688
vt 2.43774 6.67079
vt 3.53948 6.82663
f 229/823/111 65/824/111 231/825/111

vt -2.53673 6.34997
vt -3.05062 5.36303
vt -2.02285 5.36303
v 0.883427 0.796837 -0.727898
vt -2.15132 6.34997
f 231/826/42 65/827/42 66/828/42 232/829/42 

vt -0.631651 6.71223
vt -0.760122 5.72529
vt 0.267644 5.72529
v 0.829752 0.841094 -0.763865
vt 0.139173 6.71223
f 232/830/41 66/831/41 67/832/41 233/833/41 

vt 1.67562 6.476
vt 1.54715 5.48906
vt 2.57492 5.48906
vt 2.06104 6.476
f 233/834/40 67/835/40 29/836/40 31/837/40 

usemtl Wood_Veneer_02
vt -0.558541 -1.77771
vn -0.0352893 0.584974 0.810284
vt -0.687012 -1.77771
vt -0.783365 -2.02222
vt -0.751247 -2.26672
v 0.734876 0.744624 -0.698351
vt -0.622776 -2.26672
f 233/838/112 31/839/112 32/840/112 34/841/112 234/842/112 

usemtl Metal_Corrugated_Shiny
vt 2.25374 8.5855
vn 0.177561 0.816459 0.549425
v 0.655393 0.706224 -0.615601
vt 2.10921 9.75177
v 0.663719 0.702228 -0.612354
vt 2.01286 9.75177
vt 1.86833 8.5855
f 34/843/113 235/844/113 236/845/113 234/846/113 

vt 4.42056 7.80616
vn 0.097204 0.844531 0.526611
vt 4.27603 8.97243
vt 4.17968 8.97243
vt 4.03515 7.80616
f 33/847/114 36/848/114 235/849/114 34/850/114 

v 0.674195 0.667741 -0.584327
vt 5.96265 6.41842
v 0.677014 0.675017 -0.59024
vt 5.9349 6.32614
v 0.67731 0.68261 -0.596411
vt 5.93198 6.22984
v 0.675064 0.690005 -0.60242
vt 5.95409 6.13605
v 0.670428 0.696696 -0.607858
vt 5.99972 6.05119
vt 6.06576 5.98102
vt 6.1477 5.93034
vt 6.23998 5.9026
vt 6.33629 5.89968
vt 6.43007 5.92179
vt 6.51493 5.96742
vt 6.5851 6.03345
vt 6.63578 6.1154
vt 6.66352 6.20767
vt 6.66644 6.30398
vt 6.64433 6.39776
vt 6.5987 6.48263
v 0.616281 0.657146 -0.575717
vt 6.53267 6.55279
v 0.624607 0.65315 -0.572469
vt 6.45072 6.60347
v 0.633982 0.650963 -0.570692
vt 6.35845 6.63122
v 0.643767 0.650733 -0.570505
vt 6.26214 6.63414
v 0.653295 0.652476 -0.571921
vt 6.16836 6.61203
v 0.661917 0.656073 -0.574845
vt 6.08349 6.5664
v 0.669046 0.66128 -0.579076
vt 6.01333 6.50036
f 237/851/39 238/852/39 239/853/39 240/854/39 241/855/39 236/856/39 235/857/39 36/858/39 35/859/39 37/860/39 38/861/39 39/862/39 40/863/39 41/864/39 43/865/39 46/866/39 48/867/39 242/868/39 243/869/39 244/870/39 245/871/39 246/872/39 247/873/39 248/874/39 

vt -7.76716 5.59553
vn 0.323275 0.51822 0.791796
vt -7.86351 5.59553
v 0.77678 0.606677 -0.586245
vt -8.00804 4.42926
v 0.788056 0.635778 -0.609895
vt -7.62263 4.42926
f 238/875/115 237/876/115 249/877/115 250/878/115 

vt -8.59511 3.55591
vn 0.287101 0.455859 0.842476
vt -8.69146 3.55591
v 0.756183 0.580832 -0.565241
vt -8.83599 2.38964
vt -8.45058 2.38964
f 237/879/116 248/880/116 251/881/116 249/882/116 

vt -8.6895 0.217799
vn 0.231362 0.402888 0.885524
vt -8.83403 1.38407
vt -8.93038 1.38407
v 0.727669 0.560005 -0.548315
vt -9.07491 0.217799
f 251/883/117 248/884/117 247/885/117 252/886/117 

vt -8.32312 -1.93824
vn 0.159856 0.362918 0.918007
vt -8.46764 -0.77197
vt -8.564 -0.77197
v 0.69318 0.545614 -0.536621
vt -8.70853 -1.93824
f 252/887/118 247/888/118 246/889/118 253/890/118 

vt -7.37639 -3.93156
vn 0.0774561 0.338672 0.937711
vt -7.52092 -2.76528
vt -7.61727 -2.76528
v 0.655067 0.538642 -0.530954
vt -7.7618 -3.93156
f 253/891/119 246/892/119 245/893/119 254/894/119 

vt -5.91384 -5.6263
vn -0.0102223 0.331803 0.943293
vt -6.05837 -4.46003
vt -6.15473 -4.46003
v 0.615927 0.539562 -0.531702
vt -6.29926 -5.6263
f 254/895/120 245/896/120 244/897/120 255/898/120 

vt -4.03515 -6.90699
vn -0.097204 0.342779 0.934374
vt -4.17968 -5.74072
vt -4.27603 -5.74072
v 0.578427 0.548312 -0.538813
vt -4.42056 -6.90699
f 255/899/121 244/900/121 243/901/121 256/902/121 

vt -1.86833 -7.68634
vn -0.177561 0.370851 0.91156
vt -2.01286 -6.52006
vt -2.10921 -6.52006
v 0.545124 0.564297 -0.551803
vt -2.25374 -7.68634
f 256/903/122 243/904/122 242/905/122 257/906/122 

vt 0.0535331 -7.91123
vn -0.245818 0.414107 0.876407
vt 0.438945 -7.91123
vt 0.294416 -6.74496
vt 0.198063 -6.74496
f 47/907/123 257/908/123 242/909/123 48/910/123 

usemtl Wood_Veneer_02
vt 0.0463909 4.05096
vn 0.0488549 0.664939 0.745298
vt -0.21055 4.05096
vt -0.146315 3.56194
vt -0.0178444 3.56194
f 50/911/124 209/912/124 257/913/124 47/914/124 

vt 0.622776 3.48248
vn 0.0352893 0.673536 0.738312
vt 0.751247 3.48248
vt 0.815482 3.9715
vt 0.687012 3.9715
vt 0.590659 3.72699
f 256/915/125 257/916/125 209/917/125 210/918/125 212/919/125 

vt 1.34505 3.20712
vn 0.0193187 0.679115 0.733778
vt 1.47352 3.20712
vt 1.50564 3.45163
vt 1.40928 3.69614
vt 1.28081 3.69614
f 255/920/126 256/921/126 212/922/126 213/923/126 214/924/126 

vt 2.09975 2.75463
vn 0.00203161 0.681296 0.732005
vt 2.16399 3.24364
vt 1.90705 3.24364
vt 1.97128 2.75463
f 255/925/127 214/926/127 215/927/127 254/928/127 

vt 2.42668 2.40034
vn -0.0153939 0.679931 0.733114
vt 2.4588 2.15583
vt 2.58727 2.15583
vt 2.6515 2.64485
vt 2.52303 2.64485
f 218/929/128 253/930/128 254/931/128 215/932/128 216/933/128 

vt 2.71014 1.94057
vn -0.0317704 0.675112 0.737031
vt 2.77437 1.45155
vt 2.90284 1.45155
vt 2.93496 1.69606
vt 2.83861 1.94057
f 220/934/129 252/935/129 253/936/129 218/937/129 219/938/129 

vt 3.02497 0.689773
vn -0.0459818 0.667169 0.743486
vt 3.08921 1.17879
vt 2.83226 1.17879
vt 2.8965 0.689773
f 252/939/130 220/940/130 221/941/130 251/942/130 

vt 2.88109 0.411432
vn -0.0570596 0.656641 0.752042
vt 2.78474 0.166923
vt 2.81686 -0.0775853
vt 2.94533 -0.0775853
vt 3.00957 0.411432
f 222/943/131 224/944/131 249/945/131 251/946/131 221/947/131 

vt 2.47664 -0.309213
vn -0.0642488 0.644247 0.762114
vt 2.54088 -0.798231
vt 2.66935 -0.798231
vt 2.70146 -0.553722
vt 2.60511 -0.309213
f 226/948/132 250/949/132 249/950/132 224/951/132 225/952/132 

v 0.789241 0.666152 -0.634579
vt 2.08736 -1.42305
vn -0.0670597 0.630831 0.773017
vt 2.21583 -1.42305
vt 2.28007 -0.934035
vt 2.02312 -0.934035
f 258/953/133 250/954/133 226/955/133 227/956/133 

usemtl Metal_Corrugated_Shiny
vt -6.40661 7.36395
vn 0.337417 0.585722 0.736939
vt -6.50296 7.36395
vt -6.64749 6.19768
vt -6.26208 6.19768
f 239/957/134 238/958/134 250/959/134 258/960/134 

vt -4.60618 8.74064
vn 0.328566 0.653764 0.681642
vt -4.70253 8.74064
vt -4.84706 7.57437
v 0.780257 0.69573 -0.658616
vt -4.46165 7.57437
f 240/961/135 239/962/135 258/963/135 259/964/135 

usemtl Wood_Veneer_02
vt 1.55145 -1.42045
vn -0.0653005 0.617308 0.784006
vt 1.4551 -1.66496
vt 1.48722 -1.90947
vt 1.61569 -1.90947
vt 1.67992 -1.42045
f 228/965/136 230/966/136 259/967/136 258/968/136 227/969/136 

vt 0.717107 -1.73532
vn -0.0590912 0.6046 0.794335
v 0.761714 0.722495 -0.680368
vt 0.781342 -2.22433
vt 0.909813 -2.22433
vt 0.941931 -1.97982
vt 0.845578 -1.73532
f 232/970/137 260/971/137 259/972/137 230/973/137 231/974/137 

vt 0.0178444 -2.34619
vn -0.0488549 0.593571 0.803297
vt 0.146315 -2.34619
vt 0.21055 -1.85717
vt -0.0463909 -1.85717
f 234/975/138 260/976/138 232/977/138 233/978/138 

usemtl Metal_Corrugated_Shiny
vt -0.198063 9.97667
vn 0.245818 0.773202 0.584578
vt -0.294416 9.97667
vt -0.438945 8.8104
vt -0.0535331 8.8104
f 236/979/139 241/980/139 260/981/139 234/982/139 

vt -2.48856 9.63179
vn 0.297323 0.717711 0.629675
vt -2.58491 9.63179
vt -2.72944 8.46552
vt -2.34403 8.46552
f 241/983/140 240/984/140 259/985/140 260/986/140 

